{
  "asset": {
    "version": "2.0",
    "generator": "THREE.GLTFExporter"
  },
  "scenes": [
    {
      "nodes": [
        8
      ],
      "name": "Scene"
    }
  ],
  "scene": 0,
  "nodes": [
    {
      "name": "Pig:PM3D_ZSphere_1_0",
      "mesh": 0
    },
    {
      "name": "Pig:PM3D_ZSphere_1_1",
      "mesh": 1
    },
    {
      "name": "Pig:PM3D_ZSphere_1_2",
      "mesh": 2
    },
    {
      "name": "Pig:PM3D_ZSphere_1_3",
      "mesh": 3
    },
    {
      "name": "Pig:PM3D_ZSphere_1_4",
      "mesh": 4
    },
    {
      "name": "Pig:PM3D_ZSphere_1_5",
      "mesh": 5
    },
    {
      "name": "Pig:PM3D_ZSphere_1_6",
      "mesh": 6
    },
    {
      "matrix": [
        1,
        0,
        0,
        0,
        0,
        -1.3435885648505064e-7,
        0.9999999657714511,
        0,
        0,
        -0.9999999657714511,
        -1.3435885648505064e-7,
        0,
        0,
        -0.8215445876121521,
        0,
        1
      ],
      "name": "PigPM3D_ZSphere_1",
      "children": [
        0,
        1,
        2,
        3,
        4,
        5,
        6
      ]
    },
    {
      "name": "enemy.glb",
      "children": [
        7
      ]
    }
  ],
  "bufferViews": [
    {
      "buffer": 0,
      "byteOffset": 0,
      "byteLength": 23616,
      "target": 34962,
      "byteStride": 16
    },
    {
      "buffer": 0,
      "byteOffset": 23616,
      "byteLength": 17712,
      "target": 34962,
      "byteStride": 12
    },
    {
      "buffer": 0,
      "byteOffset": 41328,
      "byteLength": 17712,
      "target": 34962,
      "byteStride": 12
    },
    {
      "buffer": 0,
      "byteOffset": 59040,
      "byteLength": 11808,
      "target": 34962,
      "byteStride": 8
    },
    {
      "buffer": 0,
      "byteOffset": 70848,
      "byteLength": 2976,
      "target": 34963
    },
    {
      "buffer": 0,
      "byteOffset": 73824,
      "byteLength": 8256,
      "target": 34962,
      "byteStride": 16
    },
    {
      "buffer": 0,
      "byteOffset": 82080,
      "byteLength": 6192,
      "target": 34962,
      "byteStride": 12
    },
    {
      "buffer": 0,
      "byteOffset": 88272,
      "byteLength": 6192,
      "target": 34962,
      "byteStride": 12
    },
    {
      "buffer": 0,
      "byteOffset": 94464,
      "byteLength": 4128,
      "target": 34962,
      "byteStride": 8
    },
    {
      "buffer": 0,
      "byteOffset": 98592,
      "byteLength": 1560,
      "target": 34963
    },
    {
      "buffer": 0,
      "byteOffset": 100152,
      "byteLength": 15168,
      "target": 34962,
      "byteStride": 16
    },
    {
      "buffer": 0,
      "byteOffset": 115320,
      "byteLength": 11376,
      "target": 34962,
      "byteStride": 12
    },
    {
      "buffer": 0,
      "byteOffset": 126696,
      "byteLength": 11376,
      "target": 34962,
      "byteStride": 12
    },
    {
      "buffer": 0,
      "byteOffset": 138072,
      "byteLength": 7584,
      "target": 34962,
      "byteStride": 8
    },
    {
      "buffer": 0,
      "byteOffset": 145656,
      "byteLength": 1896,
      "target": 34963
    },
    {
      "buffer": 0,
      "byteOffset": 147552,
      "byteLength": 5184,
      "target": 34962,
      "byteStride": 16
    },
    {
      "buffer": 0,
      "byteOffset": 152736,
      "byteLength": 3888,
      "target": 34962,
      "byteStride": 12
    },
    {
      "buffer": 0,
      "byteOffset": 156624,
      "byteLength": 3888,
      "target": 34962,
      "byteStride": 12
    },
    {
      "buffer": 0,
      "byteOffset": 160512,
      "byteLength": 2592,
      "target": 34962,
      "byteStride": 8
    },
    {
      "buffer": 0,
      "byteOffset": 163104,
      "byteLength": 1560,
      "target": 34963
    },
    {
      "buffer": 0,
      "byteOffset": 164664,
      "byteLength": 15536,
      "target": 34962,
      "byteStride": 16
    },
    {
      "buffer": 0,
      "byteOffset": 180200,
      "byteLength": 11652,
      "target": 34962,
      "byteStride": 12
    },
    {
      "buffer": 0,
      "byteOffset": 191852,
      "byteLength": 11652,
      "target": 34962,
      "byteStride": 12
    },
    {
      "buffer": 0,
      "byteOffset": 203504,
      "byteLength": 7768,
      "target": 34962,
      "byteStride": 8
    },
    {
      "buffer": 0,
      "byteOffset": 211272,
      "byteLength": 1968,
      "target": 34963
    },
    {
      "buffer": 0,
      "byteOffset": 213240,
      "byteLength": 15168,
      "target": 34962,
      "byteStride": 16
    },
    {
      "buffer": 0,
      "byteOffset": 228408,
      "byteLength": 11376,
      "target": 34962,
      "byteStride": 12
    },
    {
      "buffer": 0,
      "byteOffset": 239784,
      "byteLength": 11376,
      "target": 34962,
      "byteStride": 12
    },
    {
      "buffer": 0,
      "byteOffset": 251160,
      "byteLength": 7584,
      "target": 34962,
      "byteStride": 8
    },
    {
      "buffer": 0,
      "byteOffset": 258744,
      "byteLength": 1896,
      "target": 34963
    },
    {
      "buffer": 0,
      "byteOffset": 260640,
      "byteLength": 8256,
      "target": 34962,
      "byteStride": 16
    },
    {
      "buffer": 0,
      "byteOffset": 268896,
      "byteLength": 6192,
      "target": 34962,
      "byteStride": 12
    },
    {
      "buffer": 0,
      "byteOffset": 275088,
      "byteLength": 6192,
      "target": 34962,
      "byteStride": 12
    },
    {
      "buffer": 0,
      "byteOffset": 281280,
      "byteLength": 4128,
      "target": 34962,
      "byteStride": 8
    },
    {
      "buffer": 0,
      "byteOffset": 285408,
      "byteLength": 1560,
      "target": 34963
    }
  ],
  "buffers": [
    {
      "byteLength": 286968,
      "uri": "data:application/octet-stream;base64,"
    }
  ],
  "accessors": [
    {
      "bufferView": 0,
      "componentType": 5126,
      "count": 1476,
      "max": [
        1,
        1,
        1,
        1
      ],
      "min": [
        0,
        0,
        0,
        1
      ],
      "type": "VEC4"
    },
    {
      "bufferView": 1,
      "componentType": 5126,
      "count": 1476,
      "max": [
        1,
        1,
        1
      ],
      "min": [
        -1,
        -1,
        -1
      ],
      "type": "VEC3"
    },
    {
      "bufferView": 2,
      "componentType": 5126,
      "count": 1476,
      "max": [
        0.9240949749946594,
        2.025408983230591,
        0.009397000074386597
      ],
      "min": [
        -0.9240949749946594,
        -1.175063967704773,
        -2.2936971187591553
      ],
      "type": "VEC3"
    },
    {
      "bufferView": 3,
      "componentType": 5126,
      "count": 1476,
      "max": [
        0.9240189790725708,
        1
      ],
      "min": [
        0,
        0.0982239842414856
      ],
      "type": "VEC2"
    },
    {
      "bufferView": 4,
      "componentType": 5123,
      "count": 1488,
      "max": [
        1475
      ],
      "min": [
        0
      ],
      "type": "SCALAR"
    },
    {
      "bufferView": 5,
      "componentType": 5126,
      "count": 516,
      "max": [
        1,
        1,
        1,
        1
      ],
      "min": [
        1,
        1,
        1,
        1
      ],
      "type": "VEC4"
    },
    {
      "bufferView": 6,
      "componentType": 5126,
      "count": 516,
      "max": [
        0.9681511521339417,
        0.993654727935791,
        0.2244238555431366
      ],
      "min": [
        -0.9681510925292969,
        -0.993654727935791,
        -0.9744698405265808
      ],
      "type": "VEC3"
    },
    {
      "bufferView": 7,
      "componentType": 5126,
      "count": 516,
      "max": [
        -0.020022977143526077,
        0.03838660567998886,
        -1.155671238899231
      ],
      "min": [
        -0.502478301525116,
        -0.010799795389175415,
        -3.210263252258301
      ],
      "type": "VEC3"
    },
    {
      "bufferView": 8,
      "componentType": 5126,
      "count": 516,
      "max": [
        0,
        1
      ],
      "min": [
        0,
        1
      ],
      "type": "VEC2"
    },
    {
      "bufferView": 9,
      "componentType": 5123,
      "count": 780,
      "max": [
        515
      ],
      "min": [
        0
      ],
      "type": "SCALAR"
    },
    {
      "bufferView": 10,
      "componentType": 5126,
      "count": 948,
      "max": [
        1,
        1,
        0.18116424977779388,
        1
      ],
      "min": [
        0.9822505712509155,
        0.8713670969009399,
        0.06480327248573303,
        1
      ],
      "type": "VEC4"
    },
    {
      "bufferView": 11,
      "componentType": 5126,
      "count": 948,
      "max": [
        0.9920568466186523,
        0.9920574426651001,
        0.9823426604270935
      ],
      "min": [
        -0.9920560717582703,
        -0.9920571446418762,
        -0.9990655183792114
      ],
      "type": "VEC3"
    },
    {
      "bufferView": 12,
      "componentType": 5126,
      "count": 948,
      "max": [
        0.6653294563293457,
        0.665329098701477,
        -3.9522712230682373
      ],
      "min": [
        -0.665330708026886,
        -0.6653304100036621,
        -5.615303039550781
      ],
      "type": "VEC3"
    },
    {
      "bufferView": 13,
      "componentType": 5126,
      "count": 948,
      "max": [
        0,
        1
      ],
      "min": [
        0,
        1
      ],
      "type": "VEC2"
    },
    {
      "bufferView": 14,
      "componentType": 5123,
      "count": 948,
      "max": [
        947
      ],
      "min": [
        0
      ],
      "type": "SCALAR"
    },
    {
      "bufferView": 15,
      "componentType": 5126,
      "count": 324,
      "max": [
        1,
        1,
        1,
        1
      ],
      "min": [
        1,
        1,
        1,
        1
      ],
      "type": "VEC4"
    },
    {
      "bufferView": 16,
      "componentType": 5126,
      "count": 324,
      "max": [
        1,
        1,
        0.000007555759111710358
      ],
      "min": [
        -1,
        -1,
        -1
      ],
      "type": "VEC3"
    },
    {
      "bufferView": 17,
      "componentType": 5126,
      "count": 324,
      "max": [
        0.01023900043219328,
        0.008875865489244461,
        -0.8215445876121521
      ],
      "min": [
        -0.009974000044167042,
        -0.010056134313344955,
        -4.921544551849365
      ],
      "type": "VEC3"
    },
    {
      "bufferView": 18,
      "componentType": 5126,
      "count": 324,
      "max": [
        0,
        1
      ],
      "min": [
        0,
        1
      ],
      "type": "VEC2"
    },
    {
      "bufferView": 19,
      "componentType": 5123,
      "count": 780,
      "max": [
        323
      ],
      "min": [
        0
      ],
      "type": "SCALAR"
    },
    {
      "bufferView": 20,
      "componentType": 5126,
      "count": 971,
      "max": [
        1,
        1,
        1,
        1
      ],
      "min": [
        0,
        0,
        0,
        1
      ],
      "type": "VEC4"
    },
    {
      "bufferView": 21,
      "componentType": 5126,
      "count": 971,
      "max": [
        1,
        1,
        1
      ],
      "min": [
        -1,
        -1,
        -1
      ],
      "type": "VEC3"
    },
    {
      "bufferView": 22,
      "componentType": 5126,
      "count": 971,
      "max": [
        0.14900662004947662,
        1.6291775703430176,
        -1.4933816194534302
      ],
      "min": [
        -1.054964542388916,
        -0.6228809356689453,
        -4.147281646728516
      ],
      "type": "VEC3"
    },
    {
      "bufferView": 23,
      "componentType": 5126,
      "count": 971,
      "max": [
        0,
        1
      ],
      "min": [
        0,
        1
      ],
      "type": "VEC2"
    },
    {
      "bufferView": 24,
      "componentType": 5123,
      "count": 984,
      "max": [
        970
      ],
      "min": [
        0
      ],
      "type": "SCALAR"
    },
    {
      "bufferView": 25,
      "componentType": 5126,
      "count": 948,
      "max": [
        0.18116424977779388,
        0.4620770215988159,
        1,
        1
      ],
      "min": [
        0.16513219475746155,
        0.4507858157157898,
        1,
        1
      ],
      "type": "VEC4"
    },
    {
      "bufferView": 26,
      "componentType": 5126,
      "count": 948,
      "max": [
        0.9831473231315613,
        0.9906782507896423,
        0.9448949098587036
      ],
      "min": [
        -0.9983326196670532,
        -0.9835270643234253,
        -0.9837297201156616
      ],
      "type": "VEC3"
    },
    {
      "bufferView": 27,
      "componentType": 5126,
      "count": 948,
      "max": [
        1.068649172782898,
        0.31045806407928467,
        -3.037167549133301
      ],
      "min": [
        0.14772126078605652,
        -0.595755398273468,
        -4.183401107788086
      ],
      "type": "VEC3"
    },
    {
      "bufferView": 28,
      "componentType": 5126,
      "count": 948,
      "max": [
        0,
        1
      ],
      "min": [
        0,
        1
      ],
      "type": "VEC2"
    },
    {
      "bufferView": 29,
      "componentType": 5123,
      "count": 948,
      "max": [
        947
      ],
      "min": [
        0
      ],
      "type": "SCALAR"
    },
    {
      "bufferView": 30,
      "componentType": 5126,
      "count": 516,
      "max": [
        1,
        1,
        1,
        1
      ],
      "min": [
        1,
        1,
        1,
        1
      ],
      "type": "VEC4"
    },
    {
      "bufferView": 31,
      "componentType": 5126,
      "count": 516,
      "max": [
        0.9194638133049011,
        0.9709283709526062,
        0.31342005729675293
      ],
      "min": [
        -0.9194641709327698,
        -0.9709284901618958,
        -0.9436312317848206
      ],
      "type": "VEC3"
    },
    {
      "bufferView": 32,
      "componentType": 5126,
      "count": 516,
      "max": [
        0.4513455629348755,
        0.005674451123923063,
        -1.1546554565429688
      ],
      "min": [
        -0.25437673926353455,
        -0.07089290022850037,
        -3.146193027496338
      ],
      "type": "VEC3"
    },
    {
      "bufferView": 33,
      "componentType": 5126,
      "count": 516,
      "max": [
        0,
        1
      ],
      "min": [
        0,
        1
      ],
      "type": "VEC2"
    },
    {
      "bufferView": 34,
      "componentType": 5123,
      "count": 780,
      "max": [
        515
      ],
      "min": [
        0
      ],
      "type": "SCALAR"
    }
  ],
  "materials": [
    {
      "pbrMetallicRoughness": {
        "metallicFactor": 1,
        "roughnessFactor": 1
      }
    },
    {
      "pbrMetallicRoughness": {
        "baseColorFactor": [
          0.6400000190734865,
          0.6400000190734865,
          0.6400000190734865,
          1
        ],
        "metallicFactor": 0,
        "roughnessFactor": 1
      },
      "name": "None.002"
    },
    {
      "pbrMetallicRoughness": {
        "baseColorFactor": [
          0.6400000190734865,
          0.6400000190734865,
          0.6400000190734865,
          1
        ],
        "metallicFactor": 0,
        "roughnessFactor": 1
      },
      "name": "Material.002"
    },
    {
      "pbrMetallicRoughness": {
        "baseColorFactor": [
          0.6400000190734865,
          0.6400000190734865,
          0.6400000190734865,
          1
        ],
        "metallicFactor": 0,
        "roughnessFactor": 1
      },
      "name": "None"
    },
    {
      "pbrMetallicRoughness": {
        "baseColorFactor": [
          0.6400000190734865,
          0.6400000190734865,
          0.6400000190734865,
          1
        ],
        "metallicFactor": 0,
        "roughnessFactor": 1
      },
      "name": "Material.005"
    },
    {
      "pbrMetallicRoughness": {
        "baseColorFactor": [
          0.6400000190734865,
          0.6400000190734865,
          0.6400000190734865,
          1
        ],
        "metallicFactor": 0,
        "roughnessFactor": 1
      },
      "name": "Material.004"
    },
    {
      "pbrMetallicRoughness": {
        "baseColorFactor": [
          0.6400000190734865,
          0.6400000190734865,
          0.6400000190734865,
          1
        ],
        "metallicFactor": 0,
        "roughnessFactor": 1
      },
      "name": "None.001"
    }
  ],
  "meshes": [
    {
      "primitives": [
        {
          "mode": 4,
          "attributes": {
            "COLOR_0": 0,
            "NORMAL": 1,
            "POSITION": 2,
            "TEXCOORD_0": 3
          },
          "indices": 4,
          "material": 0
        }
      ]
    },
    {
      "primitives": [
        {
          "mode": 4,
          "attributes": {
            "COLOR_0": 5,
            "NORMAL": 6,
            "POSITION": 7,
            "TEXCOORD_0": 8
          },
          "indices": 9,
          "material": 1
        }
      ]
    },
    {
      "primitives": [
        {
          "mode": 4,
          "attributes": {
            "COLOR_0": 10,
            "NORMAL": 11,
            "POSITION": 12,
            "TEXCOORD_0": 13
          },
          "indices": 14,
          "material": 2
        }
      ]
    },
    {
      "primitives": [
        {
          "mode": 4,
          "attributes": {
            "COLOR_0": 15,
            "NORMAL": 16,
            "POSITION": 17,
            "TEXCOORD_0": 18
          },
          "indices": 19,
          "material": 3
        }
      ]
    },
    {
      "primitives": [
        {
          "mode": 4,
          "attributes": {
            "COLOR_0": 20,
            "NORMAL": 21,
            "POSITION": 22,
            "TEXCOORD_0": 23
          },
          "indices": 24,
          "material": 4
        }
      ]
    },
    {
      "primitives": [
        {
          "mode": 4,
          "attributes": {
            "COLOR_0": 25,
            "NORMAL": 26,
            "POSITION": 27,
            "TEXCOORD_0": 28
          },
          "indices": 29,
          "material": 5
        }
      ]
    },
    {
      "primitives": [
        {
          "mode": 4,
          "attributes": {
            "COLOR_0": 30,
            "NORMAL": 31,
            "POSITION": 32,
            "TEXCOORD_0": 33
          },
          "indices": 34,
          "material": 6
        }
      ]
    }
  ]
}